<svg width="104" height="118" viewBox="0 0 104 118" fill="none" xmlns="http://www.w3.org/2000/svg">
<rect x="52.5" y="28" width="48.7904" height="48.7904" rx="3" transform="rotate(45 52.5 28)" fill="#D9D9D9"/>
<path d="M47 1.88675C50.094 0.100423 53.906 0.100423 57 1.88675L98.9615 26.1132C102.056 27.8996 103.962 31.2008 103.962 34.7735V83.2265C103.962 86.7991 102.056 90.1004 98.9615 91.8867L57 116.113C53.906 117.9 50.094 117.9 47 116.113L5.03847 91.8867C1.94446 90.1004 0.0384746 86.7991 0.0384746 83.2265V34.7735C0.0384746 31.2008 1.94446 27.8996 5.03847 26.1132L47 1.88675Z" fill="#414042"/>
<path d="M49 15.732C50.8564 14.6603 53.1436 14.6603 55 15.7321L87.9711 34.7679C89.8275 35.8397 90.9711 37.8205 90.9711 39.9641V78.0359C90.9711 80.1795 89.8275 82.1602 87.9711 83.232L55 102.268C53.1436 103.34 50.8564 103.34 49 102.268L16.0289 83.232C14.1724 82.1602 13.0289 80.1795 13.0289 78.0359V39.9641C13.0289 37.8205 14.1725 35.8397 16.0289 34.7679L49 15.732Z" fill="#D9D9D9"/>
<rect x="52.5" y="28" width="14.785" height="16.7489" rx="3" transform="rotate(45 52.5 28)" fill="#414042"/>
<rect x="76.5455" y="52.0455" width="14.785" height="17.4771" rx="3" transform="rotate(45 76.5455 52.0455)" fill="#414042"/>
<rect x="28.2985" y="52.2015" width="22.1774" height="14.5643" rx="3" transform="rotate(45 28.2985 52.2015)" fill="#414042"/>
<rect x="68.3067" y="60.2843" width="14.785" height="20.39" rx="3" transform="rotate(45 68.3067 60.2843)" fill="#414042"/>
<rect x="38.7531" y="62.656" width="17.0027" height="14.5643" rx="3" transform="rotate(45 38.7531 62.656)" fill="#414042"/>
<rect x="58.7727" y="34.2727" width="22.9167" height="14.5643" rx="3" transform="rotate(45 58.7727 34.2727)" fill="#414042"/>
<rect x="44.2612" y="36.2388" width="14.785" height="20.39" rx="3" transform="rotate(45 44.2612 36.2388)" fill="#414042"/>
</svg>
